<?xml version="1.0" encoding="UTF-8"?>
<svg xmlns="http://www.w3.org/2000/svg" version="1.1" viewBox="0 0 24 24">
  <defs>
    <style>
      .cls-1 {
        fill: #e3e3e3;
      }
    </style>
  </defs>
  <!-- Generator: Adobe Illustrator 28.7.1, SVG Export Plug-In . SVG Version: 1.2.0 Build 142)  -->
  <g>
    <g id="Layer_1">
      <path class="cls-1" d="M2.1,10.11c.19-1.04.57-1.99,1.12-2.89.08-.13.14-.16.29-.09.61.3,1.22.6,1.85.87.57.25,2.6.35,2.99.4.16.02.26,0,.35-.15.13-.23.75-.98.89-1.15.27-.32.51-.65.72-1.02.07-.13.13-.13.24-.05,1.57,1.12,3.15,2.23,4.71,3.37.31.22.58.28.94.2.86-.19,1.73-.34,2.61-.48,1.31-.21,3.01.81,3.2,2.3v1.09c-.57.02-1.13.04-1.7.05-.13,0-.21.03-.25.17-.09.27-.21.53-.31.8-.04.11-.1.16-.22.18-.47.08-.94.18-1.42.26-.25.04-.14.24-.17.37-.03.14.1.09.16.09,1.3,0,2.6,0,3.9,0v3.55c-3.07.03-6.14,0-9.21.01-.1,0-.19-.03-.27-.08-1.15-.71-2.27-1.41-3.44-2.12,0,.68,0,1.32,0,1.96,0,.18-.04.24-.23.24-2.28-.02-4.57.01-6.85-.01,0-1.18,0-2.37,0-3.55h.54c.02-.06,0-.1-.02-.14-.21-.51-.34-1.04-.44-1.58-.02-.12,0-2.46.02-2.61ZM20.72,11.39c-.31-.76-1.1-1.18-1.91-1.03-1.1.2-2.2.4-3.29.61-.09.02-.16,0-.23-.05-.22-.17-.46-.31-.68-.49-.14-.12-.21-.07-.3.06-.18.27-.37.53-.55.8-.07.1-.11.11-.21.04-.24-.18-.48-.35-.73-.51-.11-.07-.12-.13-.04-.23.2-.28.39-.57.6-.84.08-.1.06-.15-.04-.22-.24-.16-.47-.32-.7-.5-.11-.09-.17-.09-.26.03-.2.28-.41.53-.62.81-.07.09-.12.1-.2.03-.24-.2-.49-.39-.74-.58-.08-.06-.09-.11-.02-.19.22-.27.42-.55.63-.82.05-.06.07-.1-.01-.15-.2-.14-.4-.28-.6-.43-.05-.04-.1-.06-.15,0-.21.28-.51.48-.7.79-.19.33-.41.65-.61.98-.1.18-.21.27-.43.21-.17-.05-.35-.05-.52-.07-.45-.04-3.48-.41-4.41-.92-.12-.06-.18-.05-.23.08-.18.43-.33.86-.42,1.31-.05.25-.05.25.2.25.72,0,1.43-.02,2.13.18.18.05.27.13.33.3.1.3.24.59.34.89.04.12.1.14.21.14.36,0,.73,0,1.09-.02.09,0,.17,0,.24.09.57.69.97,1.46,1.11,2.35.02.15.08.17.22.17,2.44,0,4.88,0,7.32,0,.13,0,.18-.03.19-.16.03-.34.09-.69.09-1.03,0-.23.1-.28.29-.31.51-.09,1.02-.19,1.53-.29.12-.02.18-.07.22-.18.11-.32.25-.63.36-.95.04-.11.1-.15.21-.15.41,0,.82,0,1.28,0ZM11.21,15.65s0,.03,0,.04c.52.32,1.05.65,1.57.98.14.09.28.14.45.14,2.49,0,4.97,0,7.46,0,.1.01.14-.03.13-.13,0-.26-.01-.52,0-.78.01-.19-.04-.24-.23-.24-3.13,0-6.26,0-9.38,0ZM5.85,14.45c.6,0,1.2,0,1.8,0,.14,0,.16-.04.13-.17-.1-.39-.25-.76-.47-1.11-.06-.09-.12-.13-.23-.13-.45.01-.9.01-1.35.03-.13,0-.18-.04-.22-.16-.14-.39-.3-.77-.45-1.16-.04-.1-.09-.15-.21-.17-.49-.06-.99-.02-1.48-.04-.15,0-.18.03-.18.18.04.91.26,1.77.64,2.59.05.11.13.13.23.13.59,0,1.18,0,1.78,0ZM5.52,16.8c.73,0,1.46,0,2.19,0,.13,0,.17-.03.17-.16,0-.28,0-.56,0-.84,0-.1-.02-.15-.14-.15-1.47,0-2.94,0-4.41,0-.12,0-.14.05-.14.15,0,.27.01.53,0,.8,0,.17.05.2.21.2.71,0,1.42,0,2.13,0Z"/>
    </g>
  </g>
</svg>