<?xml version="1.0" encoding="UTF-8"?>
<svg xmlns="http://www.w3.org/2000/svg" version="1.1" viewBox="0 0 24 24">
  <defs>
    <style>
      .cls-1 {
        fill: #e3e3e3;
      }
    </style>
  </defs>
  <!-- Generator: Adobe Illustrator 28.7.1, SVG Export Plug-In . SVG Version: 1.2.0 Build 142)  -->
  <g>
    <g id="Layer_1">
      <g id="Layer_1-2" data-name="Layer_1">
        <path class="cls-1" d="M21,10.4c0,1.5-.3,2.8-.9,4-.2.5-.6.9-.9,1.3-.3.4-.7.9-1,1.3,0,0,0,0,0,0-1.6,1.6-3.3,3.3-4.9,4.9-.4.4-1,.6-1.6.5-.4,0-.8-.3-1.1-.6-1.7-1.7-3.4-3.4-5.1-5.1-.5-.5-1-1.1-1.3-1.8-.5-.9-.9-2-1.1-3-.1-.7-.1-1.4,0-2.2,0-.8.2-1.6.5-2.4.3-.8.7-1.6,1.3-2.3.2-.3.4-.5.7-.8.6-.6,1.2-1.1,1.9-1.5.5-.3,1.1-.6,1.7-.8.6-.2,1.1-.3,1.7-.4.6,0,1.2,0,1.7,0,.9,0,1.8.2,2.6.5.8.3,1.6.7,2.3,1.2.5.4.9.8,1.3,1.2.5.5.9,1.1,1.2,1.7.5.9.8,1.8.9,2.8,0,.5.1,1,.1,1.4h0ZM19.5,10.4c0-.2,0-.6,0-1-.2-1.1-.6-2.1-1.2-3-.3-.5-.7-1-1.2-1.4-.3-.2-.5-.5-.8-.7-.5-.3-1-.6-1.5-.8-.8-.3-1.7-.5-2.5-.5-.4,0-.9,0-1.3,0-.8.1-1.5.3-2.2.7-.5.2-.9.5-1.3.8-.5.4-1,.9-1.4,1.4-.4.5-.7,1-.9,1.5-.4.8-.6,1.7-.7,2.6,0,.6,0,1.2.1,1.8.2.8.5,1.6.9,2.4.5.8,1.1,1.6,1.9,2.2.7.6,1.5,1,2.4,1.3.8.3,1.7.4,2.6.3,0,0,.1,0,.1,0,0,0,0,.1,0,.1-.3.3-.6.6-.9.9-.2.2-.3.3-.5.5-.2.2-.2.4,0,.6.2.2.5.5.7.7.2.2.4.2.5,0,1.6-1.6,3.2-3.2,4.8-4.8.1-.1.1-.2,0-.4,0-.1-.1-.2-.2-.3-.9-.9-1.7-1.7-2.6-2.6-.7-.7-1.3-1.3-2-2-.2-.2-.4-.2-.6,0-.2.2-.4.4-.7.7-.2.2-.2.4,0,.6.7.7,1.4,1.4,2.1,2.2.1.1,0,.2,0,.2-.2,0-.5.1-.8.1-.9,0-1.7,0-2.5-.5-.7-.4-1.2-.9-1.5-1.5-.5-.9-.7-1.9-.5-2.9.2-1,.8-1.9,1.6-2.5.9-.7,2-.9,3.1-.7.8.1,1.5.5,2.1,1,.4.4.8.9,1,1.4.4.9.5,1.8.2,2.7,0,.1,0,.2,0,.4.2.2.3.4.5.5.5.5,1,1,1.5,1.5.3.3.5.2.7-.1,0,0,0-.2.1-.3.4-.9.6-1.9.6-3.1h0Z"/>
      </g>
    </g>
  </g>
</svg>