<?xml version="1.0" encoding="UTF-8"?>
<svg xmlns="http://www.w3.org/2000/svg" version="1.1" viewBox="0 0 1920 1080">
  <defs>
    <style>
      .cls-1 {
        fill: #202a38;
      }
    </style>
  </defs>
  <!-- Generator: Adobe Illustrator 28.7.1, SVG Export Plug-In . SVG Version: 1.2.0 Build 142)  -->
  <g>
    <g id="Layer_1">
      <path class="cls-1" d="M1172.48,577.13c.2,40.03-7.67,74.96-23.46,108.12-6.28,13.18-15.29,24.59-23.78,36.32-8.57,11.84-17.79,23.17-27.02,34.49-.71.87-1.56,1.62-2.35,2.41-44.21,44.27-88.32,88.62-132.68,132.73-11.72,11.66-26.39,15.24-42.63,13.06-11.86-1.59-21.4-7.25-29.76-15.66-46.24-46.46-92.68-92.73-138.89-139.23-14.23-14.32-25.93-30.65-35.9-48.24-14.59-25.75-24.16-53.25-28.84-82.45-3.11-19.41-3.51-38.91-2.14-58.53,1.54-22.04,6.15-43.37,13.67-64.08,8.33-22.95,19.76-44.22,34.68-63.63,5.6-7.29,11.27-14.55,17.68-21.04,15.55-15.75,32.43-29.96,51.58-41.28,14.73-8.71,30.11-16.03,46.36-21.37,15.12-4.97,30.52-8.8,46.39-10.76,15.63-1.92,31.26-2.53,46.95-1.77,24.26,1.18,47.77,6.15,70.58,14.41,22.45,8.13,43.12,19.58,62.33,33.74,13.08,9.64,24.7,20.93,35.6,32.86,12.83,14.04,23.53,29.71,32.57,46.51,12.69,23.6,21.23,48.62,25.76,74.97,2.36,13.76,3.85,27.66,3.31,38.41ZM1132.55,575.89c.45-6.34-.9-17.11-2.63-27.76-4.73-29.05-14.96-56.07-31.41-80.54-9.22-13.71-19.5-26.54-32.01-37.56-7.27-6.41-14.64-12.64-22.6-18.11-12.82-8.82-26.49-16.03-41-21.77-22.04-8.71-44.94-12.98-68.48-14.06-11.69-.54-23.32.54-34.94,2.1-20.98,2.82-40.88,9.06-59.91,18.13-12.56,5.98-24.2,13.5-35.33,21.93-14.16,10.73-26.65,23.1-37.39,37.14-9.66,12.63-17.8,26.22-24.43,40.78-10.42,22.88-16.1,46.91-17.89,71.81-1.17,16.28-.11,32.61,3,48.69,4.41,22.83,12.23,44.38,23.76,64.68,13.07,23.02,30.11,42.57,50.62,59,19.73,15.81,41.87,27.39,66.09,34.84,22.6,6.95,45.71,10.12,69.36,9.21,1.38-.05,3.26-.8,4.05.97.76,1.7-.79,2.73-1.87,3.72-8.2,7.61-15.72,15.92-23.91,23.56-4.61,4.3-8.74,9.14-13.49,13.38-5.42,4.82-5.37,10.95-.31,16.03,6.44,6.47,12.87,12.93,19.35,19.36,4.43,4.39,9.87,4.51,14.19.19,43.18-43.19,86.33-86.4,129.47-129.63,2.96-2.97,3.36-6.36,1.79-10.23-1.24-3.04-3.71-4.94-5.89-7.12-23.33-23.37-46.67-46.73-70.01-70.1-17.98-18-36.07-35.88-53.86-54.07-5.62-5.75-11.9-5.31-17.07.16-5.75,6.07-11.79,11.87-17.7,17.8-5.42,5.44-5.38,10.32.11,15.82,19.41,19.44,38.83,38.88,58.24,58.33,3.05,3.06,2.69,5-1.17,6.05-6.69,1.81-13.49,3.3-20.38,3.77-23.56,1.59-45.94-2.5-66.68-14.39-17.66-10.13-31.7-24.01-41.68-41.58-14.09-24.79-18.27-51.63-12.51-79.52,5.83-28.19,20.45-51.09,43.98-68.08,25.34-18.29,53.45-24.59,84.2-20.04,22.1,3.28,41.43,12.55,57.93,27.46,11.73,10.6,20.89,23.22,27.2,37.84,10.17,23.57,12.22,47.8,6.41,72.77-.77,3.33-.76,6.55,1.64,9.53,4.24,5.28,9.31,9.73,14.04,14.51,13.17,13.32,26.43,26.56,39.7,39.78,7.61,7.59,14.77,6.43,19.49-3.11,1.1-2.22,2.03-4.53,3.04-6.81,11.28-25.59,16.57-52.42,16.89-84.86Z"/>
    </g>
  </g>
</svg>