<?xml version="1.0" encoding="UTF-8"?>
<svg xmlns="http://www.w3.org/2000/svg" version="1.1" viewBox="0 0 24 24">
  <defs>
    <style>
      .cls-1 {
        fill: #039ffb;
      }
    </style>
  </defs>
  <!-- Generator: Adobe Illustrator 28.7.1, SVG Export Plug-In . SVG Version: 1.2.0 Build 142)  -->
  <g>
    <g id="Layer_1">
      <g>
        <path class="cls-1" d="M12.58,2.77c.18.09.39.1.58.17,1.31.51,2.08,1.46,2.28,2.85.02.16.07.17.21.13.41-.13.84-.21,1.28-.16.13.01.25.04.35.12.17.13.35.13.54.13.73,0,1.47,0,2.2,0,.3,0,.43.13.43.42,0,.26,0,.52,0,.78,0,.3-.13.43-.43.43-.71,0-1.42,0-2.13,0-.11,0-.19.02-.26.11-.21.25-.48.39-.82.4-.54.02-.96.23-1.21.73-.08.17-.08.17.11.18.21,0,.42-.02.63.03.86.2,1.22,1.17.71,1.88-.07.1-.09.16,0,.27.32.42.32.98.01,1.41-.08.11-.09.17,0,.29.27.37.31.79.11,1.21-.2.44-.56.66-1.03.69-.17.01-.34.01-.5,0-.13,0-.16.04-.16.16,0,.92,0,1.84,0,2.76,0,1.75-1.34,3.27-3.07,3.46-2.06.22-3.59-1.29-3.79-2.98-.03-.23-.03-.23-.25-.16-.44.13-.87.21-1.33.14-.1-.02-.2-.04-.27-.09-.18-.14-.38-.13-.58-.13-.71,0-1.43,0-2.14,0-.35,0-.48-.13-.48-.48,0-.24,0-.48,0-.72,0-.31.13-.44.44-.44.71,0,1.42,0,2.13,0,.11,0,.19-.03.26-.12.25-.29.58-.4.96-.41.53-.03.97-.37,1.12-.85.03-.1.03-.14-.09-.13-.2,0-.41.02-.61-.02-.89-.14-1.31-1.18-.77-1.9.08-.1.07-.16,0-.26-.34-.46-.32-1.02.03-1.47.07-.08.04-.12-.01-.19-.54-.72-.19-1.71.69-1.92.21-.05.43-.03.65-.03q.23,0,.23-.24s0-.07,0-.11c.02-.18.15-.32.32-.33.21-.01.35.1.39.29,0,.02,0,.05,0,.07q.02.31.34.31c.16,0,.31,0,.47,0,.14.01.17-.05.17-.18,0-.85,0-1.71,0-2.56-.01-.71.25-1.27.86-1.63.57-.34,1.17-.35,1.75-.03.58.32.89.84.91,1.51,0,.34,0,.68,0,1.07.28-.37.57-.65.92-.88.06-.04.05-.1.05-.16.02-1.25-.91-2.41-2.14-2.67-1.7-.35-3.25.86-3.31,2.59,0,.19-.06.35-.25.41-.16.05-.3,0-.4-.13-.06-.08-.08-.17-.07-.27.05-1.25.62-2.19,1.66-2.87.35-.23.74-.37,1.15-.46.04,0,.1,0,.13-.05h1.08ZM9.29,16.56c0,.4,0,.8,0,1.21.01,1.76,1.55,3.02,3.28,2.69,1.16-.22,2.11-1.27,2.16-2.45.04-.98.01-1.97.02-2.95,0-.1-.04-.12-.13-.12-.22,0-.44.01-.67,0-.15,0-.18.05-.18.18,0,.86-.02,1.73,0,2.59.03,1.03-.8,1.8-1.69,1.84-.93.04-1.82-.74-1.83-1.67,0-.92,0-1.85,0-2.77,0-.14-.04-.18-.17-.17-.21.01-.42.01-.63,0-.13,0-.18.03-.17.17,0,.49,0,.97,0,1.46ZM12.03,13.16c-1.34,0-2.69,0-4.03,0-.3,0-.52.2-.53.48,0,.27.22.48.52.48,2.68,0,5.37,0,8.05,0,.06,0,.12,0,.18-.02.23-.07.37-.29.33-.53-.04-.25-.22-.41-.49-.41-1.34,0-2.69,0-4.03,0ZM12.03,10.74c1.3,0,2.59,0,3.89,0,.07,0,.14,0,.22,0,.34-.04.52-.41.35-.71-.12-.22-.33-.26-.56-.26-2.61,0-5.23,0-7.84,0-.09,0-.18,0-.27.03-.2.05-.35.24-.36.44,0,.19.14.42.33.47.09.03.19.03.29.03,1.32,0,2.63,0,3.95,0ZM12.02,12.43c.87,0,1.74,0,2.61,0,.47,0,.94,0,1.41,0,.25,0,.44-.13.49-.34.09-.34-.14-.63-.51-.63-2.67,0-5.35,0-8.02,0-.02,0-.05,0-.07,0-.22.02-.38.16-.44.37-.05.19.02.39.19.51.11.08.24.09.38.09,1.32,0,2.64,0,3.97,0ZM13.05,16.43h0c0-.47,0-.95,0-1.42,0-.14-.04-.17-.17-.17-.58,0-1.15,0-1.73,0-.14,0-.18.03-.18.18,0,.9,0,1.8,0,2.7,0,.14,0,.29.06.43.18.47.65.75,1.12.68.51-.08.87-.48.89-1,.01-.46,0-.92,0-1.39ZM13.06,7.52c0-.42,0-.84,0-1.26,0-.15-.01-.3-.07-.44-.2-.48-.66-.73-1.16-.64-.48.09-.84.51-.84,1.02,0,.9,0,1.8,0,2.7,0,.12.05.15.16.15.59,0,1.18,0,1.77,0,.13,0,.16-.04.16-.16,0-.46,0-.91,0-1.37ZM14.3,9.05c.1,0,.19-.01.29,0,.15.02.2-.04.24-.18.25-.86.95-1.39,1.86-1.43.12,0,.23-.03.32-.1.16-.13.24-.34.18-.53-.06-.21-.25-.33-.5-.34-1.31-.02-2.58,1.02-2.84,2.32q-.05.26.22.26c.08,0,.16,0,.23,0ZM8.57,16.07c-.4.31-.81.47-1.29.47-.28,0-.49.24-.49.5,0,.27.23.47.52.46.4,0,.78-.08,1.15-.25.06-.03.11-.05.11-.14,0-.34,0-.68,0-1.05ZM18.81,6.73c-.26,0-.52,0-.77,0-.06,0-.12-.01-.12.08,0,.1.05.11.12.11.52,0,1.03,0,1.55,0,.07,0,.13,0,.13-.1,0-.1-.07-.09-.13-.09-.26,0-.52,0-.77,0ZM5.18,17.26c.25,0,.5,0,.76,0,.06,0,.14.04.14-.08,0-.11-.06-.11-.14-.11-.51,0-1.02,0-1.53,0-.06,0-.13-.02-.13.09,0,.1.06.1.13.1.26,0,.52,0,.77,0Z"/>
        <path class="cls-1" d="M9.29,7.52c0,.25-.15.43-.37.43-.21,0-.36-.16-.36-.41,0-.28.13-.43.37-.43.22,0,.35.16.35.41Z"/>
      </g>
    </g>
  </g>
</svg>