<?xml version="1.0" encoding="UTF-8"?>
<svg xmlns="http://www.w3.org/2000/svg" version="1.1" viewBox="0 0 24 24">
  <defs>
    <style>
      .cls-1 {
        fill: #e3e3e3;
      }
    </style>
  </defs>
  <!-- Generator: Adobe Illustrator 28.7.1, SVG Export Plug-In . SVG Version: 1.2.0 Build 142)  -->
  <g>
    <g id="Layer_1">
      <g id="Layer_1-2" data-name="Layer_1">
        <g>
          <path class="cls-1" d="M12.6,2.8c.2,0,.4,0,.6.2,1.3.5,2.1,1.5,2.3,2.8,0,.2,0,.2.2.1.4-.1.8-.2,1.3-.2.1,0,.2,0,.4.1.2.1.4.1.5.1h2.2c.3,0,.4.1.4.4v.8c0,.3-.1.4-.4.4h-2.1c-.1,0-.2,0-.3.1-.2.2-.5.4-.8.4-.5,0-1,.2-1.2.7q0,.2.1.2c.2,0,.4,0,.6,0,.9.2,1.2,1.2.7,1.9,0,.1,0,.2,0,.3.3.4.3,1,0,1.4,0,.1,0,.2,0,.3.3.4.3.8.1,1.2-.2.4-.6.7-1,.7-.2,0-.3,0-.5,0-.1,0-.2,0-.2.2v2.8c0,1.8-1.3,3.3-3.1,3.5-2.1.2-3.6-1.3-3.8-3q0-.2-.2-.2c-.4.1-.9.2-1.3.1,0,0-.2,0-.3,0-.2-.1-.4-.1-.6-.1h-2.1c-.3,0-.5-.1-.5-.5v-.7c0-.3.1-.4.4-.4h2.1c.1,0,.2,0,.3-.1.2-.3.6-.4,1-.4.5,0,1-.4,1.1-.9,0-.1,0-.1,0-.1-.2,0-.4,0-.6,0-.9-.1-1.3-1.2-.8-1.9,0-.1,0-.2,0-.3-.3-.5-.3-1,0-1.5,0,0,0-.1,0-.2-.5-.7-.2-1.7.7-1.9.2,0,.4,0,.6,0s.2,0,.2-.2c0-.2,0,0,0-.1,0-.2.1-.3.3-.3.2,0,.4.1.4.3h0c0,.3.1.4.3.4h.5c.1,0,.2,0,.2-.2v-2.6c0-.7.2-1.3.9-1.6.6-.3,1.2-.3,1.8,0,.6.3.9.8.9,1.5v1.1c.3-.4.6-.7.9-.9,0,0,0,0,0-.2,0-1.2-.9-2.4-2.1-2.7-1.7-.3-3.2.9-3.3,2.6,0,.2,0,.3-.2.4-.2,0-.3,0-.4-.1,0,0,0-.2,0-.3,0-1.2.6-2.2,1.7-2.9.4-.2.7-.4,1.1-.5,0,0,.1,0,.1,0h1.1,0ZM9.3,16.6v1.2c0,1.8,1.6,3,3.3,2.7,1.2-.2,2.1-1.3,2.2-2.5,0-1,0-2,0-2.9,0-.1,0-.1-.1-.1-.2,0-.4,0-.7,0-.1,0-.2,0-.2.2,0,.9,0,1.7,0,2.6,0,1-.8,1.8-1.7,1.8-.9,0-1.8-.7-1.8-1.7v-2.8c0-.1,0-.2-.2-.2-.2,0-.4,0-.6,0-.1,0-.2,0-.2.2v1.5h0ZM12,13.2h-4c-.3,0-.5.2-.5.5,0,.3.2.5.5.5h8c0,0,.1,0,.2,0,.2,0,.4-.3.3-.5,0-.2-.2-.4-.5-.4-1.3,0-2.7,0-4,0ZM12,10.7h4.1c.3,0,.5-.4.4-.7-.1-.2-.3-.3-.6-.3h-7.8c0,0-.2,0-.3,0-.2,0-.3.2-.4.4,0,.2.1.4.3.5,0,0,.2,0,.3,0,1.3,0,2.6,0,4,0ZM12,12.4h4c.2,0,.4-.1.5-.3,0-.3-.1-.6-.5-.6H7.9c-.2,0-.4.2-.4.4,0,.2,0,.4.2.5.1,0,.2,0,.4,0h4,0ZM13.1,16.4h0v-1.4c0-.1,0-.2-.2-.2h-1.7c-.1,0-.2,0-.2.2v2.7c0,.1,0,.3,0,.4.2.5.6.8,1.1.7.5,0,.9-.5.9-1,0-.5,0-.9,0-1.4h0ZM13.1,7.5v-1.3c0-.2,0-.3,0-.4-.2-.5-.7-.7-1.2-.6-.5,0-.8.5-.8,1v2.7c0,.1,0,.1.2.1h1.8c.1,0,.2,0,.2-.2v-1.4h0ZM14.3,9.1c.1,0,.2,0,.3,0,.1,0,.2,0,.2-.2.2-.9.9-1.4,1.9-1.4.1,0,.2,0,.3,0,.2-.1.2-.3.2-.5,0-.2-.2-.3-.5-.3-1.3,0-2.6,1-2.8,2.3,0,.2,0,.3.2.3h.2ZM8.6,16.1c-.4.3-.8.5-1.3.5s-.5.2-.5.5.2.5.5.5c.4,0,.8,0,1.2-.2,0,0,.1,0,.1-.1v-1h0ZM18.8,6.7h-.8c0,0-.1,0-.1,0s0,.1.1.1h1.5c0,0,.1,0,.1,0s0,0-.1,0h-.8ZM5.2,17.3h.8c0,0,.1,0,.1,0s0-.1-.1-.1h-1.5c0,0-.1,0-.1,0s0,.1.1.1h.8Z"/>
          <path class="cls-1" d="M9.3,7.5c0,.2-.1.4-.4.4s-.4-.2-.4-.4.1-.4.4-.4.4.2.4.4h0Z"/>
        </g>
      </g>
    </g>
  </g>
</svg>